<svg id="Capa_1" enable-background="new 0 0 512 512" height="512" viewBox="0 0 512 512" width="512" xmlns="http://www.w3.org/2000/svg"><g><g><g><path d="m362 42.7c-10.69-9.6-22.96-13.97-35.48-12.62-15.08 1.62-27.79-1.4-37.78-8.97-10.02-7.6-21.07-13.2-32.74-16.71-15.55-4.7-32.19-5.68-48.93-2.72-42.49 7.52-77.23 42.43-84.5 84.91-5.8 33.96 4.79 67.81 28.43 91.9v11.42c0 1.33.02 2.66.07 3.94l29.96.41c.79-12.44 26.96-21.84 50.05-30.15 8.25-2.97 16.78-6.03 24.92-9.51 9.7-4.12 18.86-8.83 26.35-14.62 7.14 9.43 16.54 16.19 24.89 22.2 15.18 10.91 23.76 17.81 23.76 32.82h17.49l5.05 8.69c22.76-13.24 37.46-46.09 37.46-83.69 0-32.08-10.84-60.98-29-77.3z" fill="#fed843"/></g></g><path d="m391 120c0 37.6-14.7 70.45-37.46 83.69l-5.05-8.69h-17.49c0-15.01-8.58-21.91-23.76-32.82-8.35-6.01-17.75-12.77-24.89-22.2-7.49 5.79-16.65 10.5-26.35 14.62v-150.2c11.67 3.51 22.72 9.11 32.74 16.71 9.99 7.57 22.7 10.59 37.78 8.97 12.52-1.35 24.79 3.02 35.48 12.62 18.16 16.32 29 45.22 29 77.3z" fill="#fabe2c"/><g><path d="m324.76 137.82c-15.18-10.91-23.76-17.81-23.76-32.82h-30c0 6.16-6.08 11.56-15 16.44-9.73 5.33-22.82 10.04-35.07 14.44-31.78 11.43-67.81 24.38-69.84 56.48 0 0-.02 1.37-.02 1.47 2.61 75.01 68.01 98.92 74.93 105.33v-27.16c0-16.54 13.46-30 30-30s30 13.46 30 30v.5l-.83 26.93c7.14-6.31 75.83-29.24 75.83-104.43 0-31.12-20.1-45.57-36.24-57.18z" fill="#ffd7aa"/></g><path d="m361 195c0 75.19-68.69 98.12-75.83 104.43l.83-26.93v-.5c0-16.54-13.46-30-30-30v-120.56c8.92-4.88 15-10.28 15-16.44h30c0 15.01 8.58 21.91 23.76 32.82 16.14 11.61 36.24 26.06 36.24 57.18z" fill="#ffc38c"/><g><path d="m376 302h-60l-60 59.65-.35.35-59.65-60h-60c-41.35 0-75 33.64-75 75v135h60l15-26.25 15 26.25h60l240-75v-60c0-41.36-33.64-75-75-75z" fill="#f0f7ff"/></g><path d="m451 437v-60c0-41.36-33.64-75-75-75h-60l-60 59.65v136.288z" fill="#dfe7f4"/><g><path d="m361 407h30v45h-30z" fill="#c7cfe1"/></g><g><g><path d="m121 407h30v105h-30z" fill="#dfe7f4"/></g></g><path d="m286 347v90l-33.2 41.5h-26.8v-131.5z" fill="#697c86"/><path d="m286 347v90l-30 37.5v-127.5z" fill="#465a61"/><path d="m361 437h-45v75h135v-75z" fill="#f0f7ff"/><path d="m316 437h-30c-10.66 0-20.81 2.24-30 6.27-26.46 11.59-45 38.03-45 68.73h105z" fill="#ffd7aa"/><path d="m316 512v-75h-30c-10.66 0-20.81 2.24-30 6.27v68.73z" fill="#ffc38c"/><circle cx="256" cy="272" fill="#697c86" r="45"/><path d="m301 272c0 24.63-19.96 45-45 45v-90c24.85 0 45 20.15 45 45z" fill="#465a61"/><path d="m196 302h120v60h-120z" fill="#7ed8f6"/><path d="m256 302h60v60h-60z" fill="#6aa9ff"/></g></svg>